<?xml version="1.0" encoding="utf-8"?>
<!-- Generator: Adobe Illustrator 16.0.3, SVG Export Plug-In . SVG Version: 6.00 Build 0)  -->
<!DOCTYPE svg PUBLIC "-//W3C//DTD SVG 1.1//EN" "http://www.w3.org/Graphics/SVG/1.1/DTD/svg11.dtd">
<svg version="1.1" id="Layer_1" xmlns="http://www.w3.org/2000/svg" xmlns:xlink="http://www.w3.org/1999/xlink" x="0px" y="0px"
	 width="36px" height="31px" viewBox="-1 0.5 36 31" enable-background="new -1 0.5 36 31" xml:space="preserve">
<path id="star" fill="#FCE8BF" d="M30.88,12.057c-0.277-0.799-0.988-1.384-1.844-1.511L20.71,9.308l-3.619-7.514
	C16.71,1.005,15.896,0.5,15,0.5c-0.896,0-1.711,0.505-2.092,1.294L9.289,9.308l-8.327,1.238c-0.855,0.127-1.566,0.712-1.842,1.511
	c-0.275,0.801-0.067,1.683,0.537,2.285l6.102,6.092l-1.415,8.451C4.2,29.736,4.568,30.59,5.292,31.088
	C5.688,31.361,6.155,31.5,6.623,31.5c0.384,0,0.769-0.094,1.118-0.281L15,27.311l7.259,3.908c0.35,0.188,0.734,0.281,1.117,0.281
	c0.467,0,0.934-0.139,1.332-0.412c0.723-0.498,1.09-1.352,0.947-2.203l-1.416-8.451l6.104-6.092
	C30.946,13.739,31.153,12.857,30.88,12.057z"/>
</svg>
