<?xml version="1.0" encoding="UTF-8" standalone="no"?>
<!-- Generator: Adobe Illustrator 16.0.3, SVG Export Plug-In . SVG Version: 6.00 Build 0)  -->

<svg
   xmlns:dc="http://purl.org/dc/elements/1.1/"
   xmlns:cc="http://creativecommons.org/ns#"
   xmlns:rdf="http://www.w3.org/1999/02/22-rdf-syntax-ns#"
   xmlns:svg="http://www.w3.org/2000/svg"
   xmlns="http://www.w3.org/2000/svg"
   xmlns:sodipodi="http://sodipodi.sourceforge.net/DTD/sodipodi-0.dtd"
   xmlns:inkscape="http://www.inkscape.org/namespaces/inkscape"
   version="1.1"
   id="Layer_3"
   x="0px"
   y="0px"
   width="587"
   height="254"
   viewBox="0 0 586.99998 253.99999"
   enable-background="new 0 0 598.189 350.26"
   xml:space="preserve"
   inkscape:version="0.48.5 r10040"
   sodipodi:docname="controller.svg"><metadata
   id="metadata29"><rdf:RDF><cc:Work
       rdf:about=""><dc:format>image/svg+xml</dc:format><dc:type
         rdf:resource="http://purl.org/dc/dcmitype/StillImage" /></cc:Work></rdf:RDF></metadata><defs
   id="defs27" /><sodipodi:namedview
   pagecolor="#ffffff"
   bordercolor="#666666"
   borderopacity="1"
   objecttolerance="10"
   gridtolerance="10"
   guidetolerance="10"
   inkscape:pageopacity="0"
   inkscape:pageshadow="2"
   inkscape:window-width="1920"
   inkscape:window-height="1027"
   id="namedview25"
   showgrid="false"
   inkscape:zoom="2.3900548"
   inkscape:cx="299.09451"
   inkscape:cy="175.13"
   inkscape:window-x="-8"
   inkscape:window-y="-8"
   inkscape:window-maximized="1"
   inkscape:current-layer="Layer_3" />
<path
   id="path3"
   d="m 127.387,0.68099242 c -22.058,0 -42.808,4.73299988 -60.808,14.85599958 -0.007,0.004 -0.021,-0.004 -0.03,0 v 0.03 c -0.982,0.542 -1.52,1.495 -1.628,2.435 -0.108,0.954 0,1.939 0,3.218 h 1.926 c 0,-1.383 -0.099,-2.417 -0.03,-3.007 0.069,-0.59 0.095,-0.688 0.662,-0.992 h 0.029 C 85.186,7.2759922 105.59,2.6049924 127.387,2.6049924 h 62.638 c 1.36,0 2.875,0.174 3.909,0.633 1.033,0.459 1.563,0.9869999 1.563,2.2549999 h 1.925 c 0,-1.9779999 -1.231,-3.3749999 -2.707,-4.0299999 -1.48,-0.65399998 -3.204,-0.78199998 -4.695,-0.78199998 h -62.642 l 0.009,0 0,0 z"
   inkscape:connector-curvature="0"
   style="fill:#f4f4f4" />
<path
   id="path5"
   d="m 126.357,4.4999923 c -68.592,0 -124.2259998,55.6049997 -124.2259998,124.1969977 0,68.594 55.6349998,124.226 124.2269998,124.226 27.078,0 52.123,-8.655 72.535,-23.366 l 0.029,-0.029 2.557,-1.955 v -0.03 h 0.028 c 4.11,-3.281 9.305,-5.231 14.977,-5.231 h 45.83 64.626 45.83 c 5.674,0 10.867,1.95 14.976,5.231 h 0.03 v 0.03 l 2.556,1.955 0.03,0.029 c 20.411,14.711 45.457,23.366 72.534,23.366 68.595,0 124.227,-55.634 124.227,-124.226 0,-68.594998 -55.635,-124.1969977 -124.227,-124.1969977 h -135.023 -24.991 -0.961 v 0.962 1.2629999 h -14.313 v -1.2629999 -0.962 h -0.962 -25.262 -135.024 -0.003 z m 0,1.9249999 h 135.023 24.299 v 1.264 0.9629999 h 0.962 16.237 0.964 v -0.9629999 -1.264 h 24.027 135.022 c 67.556,0 122.301,54.7209998 122.301,122.2719978 0,67.555 -54.749,122.301 -122.301,122.301 -26.657,0 -51.299,-8.531 -71.394,-23.006 h -0.028 l -2.526,-1.954 c -4.438,-3.543 -10.063,-5.653 -16.179,-5.653 h -45.83 -64.624 -45.831 c -6.117,0 -11.741,2.11 -16.178,5.653 l -2.526,1.954 h -0.03 c -20.084,14.482 -44.719,23.01 -71.385,23.01 -67.552,0 -122.3009998,-54.746 -122.3009998,-122.301 C 4.0590002,61.148992 58.809,6.4289922 126.36,6.4289922 l -0.003,-0.004 z"
   inkscape:connector-curvature="0"
   style="fill:#f4f4f4" />
<path
   id="path7"
   d="m 399.241,0.68099242 c -1.495,0 -3.217,0.127 -4.691,0.78199998 -1.474,0.655 -2.705,2.053 -2.705,4.0299999 h 1.925 c 0,-1.268 0.528,-1.7959999 1.563,-2.2549999 1.029,-0.459 2.541,-0.632 3.907,-0.632 h 62.637 c 21.793,0 42.197,4.6689998 59.875,14.6149996 h 0.03 c 0.566,0.304 0.595,0.402 0.661,0.992 0.068,0.591 -0.03,1.624 -0.03,3.007 h 1.926 c 0,-1.278 0.108,-2.264 0,-3.218 -0.108,-0.94 -0.646,-1.894 -1.624,-2.436 -0.008,-0.005 0.007,-0.027 0,-0.03 -0.009,-0.004 -0.022,0.004 -0.029,0 C 504.68,5.4129923 483.932,0.67999242 461.875,0.67999242 h -62.641 0.007 z"
   inkscape:connector-curvature="0"
   style="fill:#f4f4f4" />
<path
   id="circle9"
   d="m 126.963,61.607992 c -36.826,0 -66.699,29.874 -66.699,66.698998 0,36.827 29.874,66.701 66.699,66.701 36.827,0 66.731,-29.876 66.731,-66.701 0,-36.826998 -29.903,-66.698998 -66.731,-66.698998 z m 0,1.924 c 35.787,0 64.808,28.989 64.808,64.773998 0,35.786 -29.021,64.776 -64.808,64.776 -35.787,0 -64.775,-28.99 -64.775,-64.776 0,-35.785998 28.99,-64.773998 64.775,-64.773998 z"
   inkscape:connector-curvature="0"
   style="fill:#f4f4f4" />
<path
   id="path11"
   d="m 115.801,79.079992 c -3.101,0 -5.623,2.523 -5.623,5.624 v 26.222998 c 0,0.511 -0.074,0.657 0,0.572 0.073,-0.086 0.001,0.029 -0.632,0.029 H 83.382 c -3.1,0 -5.653,2.523 -5.653,5.624 v 22.313 c 0,3.101 2.554,5.624 5.653,5.624 h 26.073 c 0.457,0 0.606,0.098 0.631,0.12 0.025,0.022 0.092,0.113 0.092,0.511 v 26.193 c 0,3.102 2.522,5.624 5.623,5.624 h 22.345 c 3.1,0 5.624,-2.522 5.624,-5.624 v -26.282 c 0,-0.294 0.048,-0.351 0.09,-0.391 0.042,-0.041 0.183,-0.15 0.571,-0.15 h 26.133 c 3.1,0 5.653,-2.522 5.653,-5.624 v -22.313 c 0,-3.101 -2.554,-5.624 -5.653,-5.624 H 144.4 c -0.32,0 -0.453,-0.093 -0.512,-0.15 -0.06,-0.057 -0.12,-0.154 -0.12,-0.451 V 84.705992 c 0,-3.102 -2.524,-5.624 -5.624,-5.624 l -22.343,-0.002 0,0 z m 0,1.925 h 22.345 c 2.06,0 3.699,1.639 3.699,3.699 v 26.222998 c 0,0.678 0.21,1.361 0.691,1.835 0.481,0.474 1.179,0.691 1.864,0.691 h 26.164 c 2.06,0 3.729,1.639 3.729,3.699 v 22.313 c 0,2.061 -1.669,3.699 -3.729,3.699 H 144.43 c -0.715,0 -1.404,0.217 -1.896,0.69 -0.491,0.477 -0.692,1.131 -0.692,1.775 v 26.283 c 0,2.061 -1.638,3.699 -3.698,3.699 H 115.8 c -2.06,0 -3.698,-1.64 -3.698,-3.699 v -26.193 c 0,-0.705 -0.193,-1.439 -0.723,-1.925 -0.528,-0.484 -1.213,-0.631 -1.925,-0.631 H 83.383 c -2.061,0 -3.729,-1.639 -3.729,-3.699 v -22.314 c 0,-2.061 1.669,-3.699 3.729,-3.699 h 26.163 c 0.828,0 1.568,-0.108 2.075,-0.691 0.507,-0.584 0.481,-1.244 0.481,-1.834 V 84.702992 c 10e-4,-2.06 1.639,-3.698 3.699,-3.698 l 0,0 z"
   inkscape:connector-curvature="0"
   style="fill:#f4f4f4" />
<path
   id="path13"
   d="m 113.731,76.493992 c -3.102,0 -5.624,2.522 -5.624,5.624 v 26.222998 c 0,0.511 -0.075,0.626 0,0.542 0.075,-0.086 0,0.03 -0.631,0.03 H 81.313 c -3.101,0 -5.654,2.552 -5.654,5.653 v 27.483 c 0,3.103 2.554,5.654 5.654,5.654 h 26.073 c 0.455,0 0.605,0.098 0.632,0.121 0.024,0.022 0.09,0.083 0.09,0.48 v 26.193 c 0,3.102 2.522,5.623 5.624,5.623 h 26.494 c 3.1,0 5.624,-2.521 5.624,-5.623 v -26.253 c 0,-0.293 0.048,-0.38 0.09,-0.42 0.042,-0.041 0.182,-0.122 0.572,-0.121 h 26.132 c 3.1,0 5.652,-2.553 5.652,-5.654 v -27.484 c 0,-3.101 -2.553,-5.653 -5.652,-5.653 H 146.48 c -0.319,0 -0.452,-0.063 -0.511,-0.121 -0.06,-0.059 -0.12,-0.156 -0.12,-0.451 V 82.116992 c 0,-3.101 -2.523,-5.624 -5.624,-5.624 h -26.494 l 0,0.001 z m 0,1.924 h 26.494 c 2.06,0 3.698,1.639 3.698,3.699 v 26.222998 c 0,0.677 0.211,1.361 0.692,1.834 0.481,0.472 1.178,0.662 1.865,0.662 h 26.163 c 2.06,0 3.729,1.669 3.729,3.729 v 27.483 c 0,2.061 -1.669,3.729 -3.729,3.729 h -26.132 c -0.717,0 -1.404,0.188 -1.896,0.66 -0.491,0.477 -0.69,1.16 -0.69,1.805 v 26.254 c 0,2.06 -1.641,3.699 -3.699,3.699 h -26.494 c -2.061,0 -3.699,-1.641 -3.699,-3.699 v -26.193 c 0,-0.704 -0.193,-1.439 -0.722,-1.925 -0.529,-0.485 -1.213,-0.601 -1.925,-0.601 H 81.314 c -2.061,0 -3.729,-1.669 -3.729,-3.729 v -27.485 c 0,-2.06 1.669,-3.729 3.729,-3.729 h 26.163 c 0.828,0 1.567,-0.108 2.075,-0.692 0.507,-0.583 0.48,-1.213 0.48,-1.804 V 82.114992 c 0.001,-2.059 1.64,-3.698 3.699,-3.697 l 0,0 z"
   inkscape:connector-curvature="0"
   style="fill:#f4f4f4" />
<path
   id="circle15"
   d="m 126.963,115.67799 c -6.97,0 -12.63,5.661 -12.63,12.63 0,6.97 5.661,12.63 12.63,12.63 6.97,0 12.66,-5.66 12.66,-12.63 0,-6.969 -5.691,-12.63 -12.66,-12.63 z m 0,1.925 c 5.93,0 10.736,4.776 10.736,10.706 0,5.93 -4.807,10.706 -10.736,10.706 -5.929,0 -10.706,-4.776 -10.706,-10.706 0,-5.93 4.777,-10.706 10.706,-10.706 z"
   inkscape:connector-curvature="0"
   style="fill:#f4f4f4" />
<path
   id="path17"
   d="m 126.963,83.229992 c -1.407,0 -2.639,0.797 -3.277,1.955 v 0.03 l -0.029,0.03 -7.277,15.215998 c -0.225,0.482 -0.36,1.028 -0.36,1.594 0,2.062 1.698,3.729 3.759,3.729 h 14.404 c 2.061,0 3.759,-1.668 3.759,-3.729 0,-0.572 -0.131,-1.138 -0.36,-1.624 l -7.338,-15.275998 -0.03,-0.061 -0.029,-0.03 c -0.66,-1.09 -1.864,-1.835 -3.222,-1.834 l 0,0 z m 0,1.925 c 0.656,0 1.24,0.362 1.563,0.872 l 0.03,0.029 7.277,15.216998 c 0.112,0.236 0.181,0.498 0.181,0.781 0,1.021 -0.814,1.805 -1.834,1.805 h -14.405 c -1.021,0 -1.835,-0.783 -1.835,-1.805 0,-0.279 0.071,-0.546 0.181,-0.781 l 7.247,-15.156998 0.03,-0.061 c 0.321,-0.532 0.891,-0.901 1.565,-0.9 l 0,0 z"
   inkscape:connector-curvature="0"
   style="fill:#f4f4f4" />
<path
   id="path19"
   d="m 100.711,117.36299 c -0.57,0 -1.105,0.13 -1.593,0.36 l -15.307,7.338 h -0.03 l -0.06,0.03 c -1.09,0.656 -1.805,1.861 -1.805,3.218 0,1.408 0.768,2.639 1.925,3.278 l 0.03,0.03 h 0.03 l 15.216,7.276 v 0.03 c 0.482,0.226 1.028,0.331 1.594,0.331 2.061,0 3.76,-1.668 3.76,-3.729 v -14.405 c -0.001,-2.06 -1.7,-3.757 -3.76,-3.757 l 0,0 z m 0,1.924 c 1.021,0 1.834,0.813 1.834,1.835 v 14.404 c 0,1.021 -0.813,1.805 -1.834,1.805 -0.269,0 -0.522,-0.049 -0.752,-0.15 h -0.028 l -15.157,-7.276 c -0.007,-0.004 -0.023,0.003 -0.03,0 -0.554,-0.314 -0.902,-0.905 -0.902,-1.595 0,-0.643 0.322,-1.176 0.813,-1.503 l 15.277,-7.338 c 0.234,-0.114 0.497,-0.182 0.779,-0.182 l 0,0 z"
   inkscape:connector-curvature="0"
   style="fill:#f4f4f4" />
<path
   id="path21"
   d="m 119.775,150.83099 c -2.062,0 -3.759,1.697 -3.759,3.76 0,0.57 0.129,1.105 0.36,1.594 l 7.338,15.308 0.03,0.031 0.03,0.028 c 0.657,1.087 1.831,1.834 3.188,1.834 1.407,0 2.669,-0.795 3.309,-1.954 v -0.029 h 0.029 l 7.277,-15.218 v -0.029 c 0.226,-0.482 0.36,-0.998 0.36,-1.563 0,-2.061 -1.698,-3.76 -3.758,-3.76 l -14.404,-0.002 0,0 z m 0,1.926 h 14.405 c 1.021,0 1.834,0.813 1.834,1.834 0,0.279 -0.071,0.518 -0.181,0.752 l -7.248,15.157 c -0.01,0.018 -0.019,0.041 -0.029,0.06 -0.317,0.531 -0.919,0.902 -1.594,0.902 -0.633,0 -1.174,-0.331 -1.504,-0.813 l -0.029,-0.062 c -0.009,-0.012 -0.022,-0.018 -0.03,-0.029 l -7.285,-15.194 c -0.004,-0.01 0.004,-0.021 0,-0.03 -0.105,-0.229 -0.18,-0.479 -0.18,-0.752 0,-1.021 0.813,-1.834 1.833,-1.834 l 0.008,0.009 z"
   inkscape:connector-curvature="0"
   style="fill:#f4f4f4" />
<path
   id="path23"
   d="m 153.245,117.36299 c -2.061,0 -3.759,1.696 -3.759,3.759 v 14.404 c 0,2.061 1.698,3.729 3.759,3.729 0.57,0 1.105,-0.129 1.594,-0.361 l 15.307,-7.338 h 0.029 l 0.061,-0.029 c 1.089,-0.657 1.804,-1.861 1.804,-3.219 0,-1.407 -0.765,-2.639 -1.924,-3.277 l -0.03,-0.03 h -0.029 l -15.217,-7.278 c -0.486,-0.227 -1.03,-0.36 -1.595,-0.36 l 0,0 z m 0,1.924 c 0.269,0 0.523,0.077 0.751,0.181 0.008,0.004 0.021,-0.004 0.03,0 l 15.156,7.248 0.029,0.03 c 0.542,0.314 0.902,0.881 0.902,1.563 0,0.646 -0.313,1.208 -0.812,1.534 -0.02,0.011 -0.041,0.02 -0.062,0.03 l -15.216,7.308 c -0.24,0.124 -0.5,0.163 -0.789,0.163 -1.021,0 -1.834,-0.784 -1.834,-1.804 v -14.405 c 0,-1.021 0.813,-1.834 1.834,-1.834 l 0.011,-0.014 z"
   inkscape:connector-curvature="0"
   style="fill:#f4f4f4" />
<path
   id="path25"
   d="m 254.769,126.47499 c -2.254,-0.197 -4.602,0.482 -6.466,2.045 l -25.171,21.111 c -3.729,3.127 -4.239,8.721 -1.112,12.451 3.126,3.729 8.72,4.208 12.451,1.082 l 25.2,-21.112 c 3.73,-3.126 4.208,-8.72 1.083,-12.451 -1.563,-1.864 -3.729,-2.929 -5.983,-3.127 l -0.002,0.001 0,0 z m -0.181,1.925 c 1.761,0.154 3.464,0.969 4.692,2.435 2.458,2.934 2.091,7.285 -0.842,9.744 l -25.201,21.111 c -2.933,2.456 -7.285,2.091 -9.744,-0.843 -2.458,-2.933 -2.061,-7.286 0.872,-9.743 l 25.203,-21.113 c 1.467,-1.229 3.263,-1.748 5.021,-1.594 l -0.001,0.003 z"
   inkscape:connector-curvature="0"
   style="fill:#f4f4f4" />
<path
   id="path27"
   d="m 252.575,121.74999 c -2.604,0.27 -5.154,1.292 -7.308,3.097 l -25.204,21.143 c -5.744,4.815 -6.497,13.383 -1.685,19.126 4.815,5.744 13.412,6.498 19.156,1.685 l 25.202,-21.111 c 5.743,-4.815 6.498,-13.382 1.684,-19.126 -3.009,-3.591 -7.507,-5.261 -11.848,-4.812 l 0.003,-0.002 z m 2.436,1.895 c 2.972,0.263 5.865,1.678 7.938,4.15 4.147,4.947 3.473,12.273 -1.473,16.418 l -25.171,21.111 c -4.947,4.146 -12.305,3.504 -16.45,-1.443 -4.146,-4.947 -3.504,-12.272 1.442,-16.418 l 25.201,-21.112 c 2.476,-2.072 5.541,-2.968 8.513,-2.706 l 0,0 z"
   inkscape:connector-curvature="0"
   style="fill:#f4f4f4" />
<path
   id="path29"
   d="m 317.743,126.47499 c -2.255,-0.197 -4.57,0.482 -6.436,2.045 l -25.201,21.111 c -3.725,3.12 -4.22,8.689 -1.113,12.418 v 0.031 c 3.126,3.729 8.721,4.209 12.451,1.082 l 25.201,-21.111 c 3.729,-3.126 4.208,-8.719 1.082,-12.45 -1.563,-1.863 -3.73,-2.927 -5.984,-3.126 l 0,0 z m -0.181,1.925 c 1.76,0.154 3.463,0.969 4.691,2.435 2.458,2.934 2.092,7.285 -0.843,9.744 l -25.2,21.111 c -2.931,2.456 -7.284,2.091 -9.743,-0.843 -2.459,-2.933 -2.061,-7.286 0.872,-9.743 l 25.201,-21.111 c 1.467,-1.229 3.264,-1.748 5.022,-1.593 l 0,0 z"
   inkscape:connector-curvature="0"
   style="fill:#f4f4f4" />
<path
   id="path31"
   d="m 315.549,121.74999 c -2.604,0.27 -5.153,1.292 -7.308,3.097 l -25.203,21.143 c -5.744,4.815 -6.499,13.383 -1.684,19.126 4.813,5.744 13.412,6.498 19.156,1.685 l 25.192,-21.113 c 5.745,-4.815 6.498,-13.382 1.686,-19.126 -3.01,-3.591 -7.509,-5.261 -11.85,-4.812 l 0.011,0 z m 2.436,1.895 c 2.971,0.263 5.866,1.678 7.938,4.15 4.146,4.947 3.475,12.273 -1.474,16.418 l -25.171,21.111 c -4.947,4.146 -12.304,3.503 -16.449,-1.443 -4.146,-4.947 -3.504,-12.272 1.443,-16.418 l 25.202,-21.112 c 2.474,-2.072 5.54,-2.968 8.511,-2.706 l 0,0 z"
   inkscape:connector-curvature="0"
   style="fill:#f4f4f4" />
<path
   id="path33"
   d="m 463.448,17.972992 c -61.001,0 -110.483,49.486 -110.483,110.482998 0,61 49.484,110.455 110.483,110.455 34.631,0 65.541,-15.923 85.796,-40.868 l 0.089,-0.12 0.062,-0.12 0.211,-0.512 0.481,-1.143 -1.233,-0.182 c -0.691,-0.095 -1.232,-0.657 -1.232,-1.383 0,-0.795 0.619,-1.414 1.413,-1.414 0.663,0 1.222,0.428 1.385,1.022 l 0.569,2.135 1.174,-1.863 0.541,-0.902 0.03,-0.061 c 13.317,-18.248 21.171,-40.731 21.171,-65.046 0,-60.999998 -49.455,-110.483998 -110.455,-110.483998 l -0.002,0.003 0,0 z m 0,1.923 c 59.96,0 108.529,48.604 108.529,108.559998 0,23.837 -7.697,45.849 -20.72,63.753 -0.601,-0.564 -1.344,-0.963 -2.227,-0.963 -1.834,0 -3.338,1.507 -3.338,3.339 0,1.184 0.744,2.053 1.685,2.646 -19.908,24.259 -50.099,39.758 -83.933,39.758 -59.96,0 -108.56,-48.571 -108.56,-108.531 0,-59.959998 48.603,-108.559998 108.56,-108.559998 l 0.004,-0.002 z"
   inkscape:connector-curvature="0"
   style="fill:#f4f4f4" />
<path
   id="circle35"
   d="m 407.209,106.56499 c -12.558,0 -22.764,10.206 -22.764,22.765 0,12.558 10.206,22.765 22.764,22.765 12.56,0 22.767,-10.207 22.767,-22.765 -10e-4,-12.559 -10.208,-22.765 -22.767,-22.765 z m 0,1.924 c 11.52,0 20.842,9.322 20.842,20.841 0,11.518 -9.322,20.84 -20.842,20.84 -11.517,0 -20.839,-9.322 -20.839,-20.84 0,-11.518 9.322,-20.841 20.839,-20.841 l 0,0 z"
   inkscape:connector-curvature="0"
   style="fill:#f4f4f4" />
<path
   id="circle37"
   d="m 462.485,63.502992 c -12.559,0 -22.734,10.205 -22.734,22.765 0,12.558001 10.177,22.764998 22.734,22.764998 12.559,0 22.766,-10.206997 22.766,-22.764998 0,-12.56 -10.207,-22.765 -22.766,-22.765 z m 0,1.924 c 11.519,0 20.84,9.322 20.84,20.84 0,11.519 -9.321,20.838998 -20.84,20.838998 -11.518,0 -20.811,-9.319998 -20.811,-20.838998 0.002,-11.518 9.293,-20.84 20.811,-20.84 z"
   inkscape:connector-curvature="0"
   style="fill:#f4f4f4" />
<path
   id="path39"
   d="m 460.561,57.246992 c -5.524,0.373 -10.98,2.331 -15.676,5.985 l -55.274,43.062998 c -12.508,9.742 -14.764,27.819 -5.022,40.326 9.742,12.509 27.819,14.733 40.328,4.993 l 55.275,-43.045 c 12.51,-9.738997 14.762,-27.812998 5.022,-40.321998 -6.091,-7.818 -15.454,-11.628 -24.654,-11.007 l 10e-4,0.007 z m 0.151,1.895 c 8.584,-0.583 17.286,2.98 22.975,10.285 9.104,11.689 6.998,28.52 -4.69,37.620998 l -55.272,43.063 c -11.688,9.103 -28.52,6.997 -37.621,-4.691 -9.104,-11.688 -6.997,-28.517 4.69,-37.621 l 55.273,-43.033998 c 4.381,-3.413 9.495,-5.274 14.645,-5.623 l 0,0 z"
   inkscape:connector-curvature="0"
   style="fill:#f4f4f4" />
<path
   id="circle41"
   d="m 464.313,148.60799 c -12.559,0 -22.765,10.205 -22.765,22.765 0,12.559 10.206,22.735 22.765,22.735 12.559,0 22.734,-10.178 22.734,-22.735 0,-12.557 -10.175,-22.765 -22.734,-22.765 z m 0,1.925 c 11.52,0 20.81,9.321 20.81,20.84 0,11.519 -9.291,20.81 -20.81,20.81 -11.519,0 -20.84,-9.291 -20.84,-20.81 10e-4,-11.518 9.323,-20.84 20.84,-20.84 z"
   inkscape:connector-curvature="0"
   style="fill:#f4f4f4" />
<path
   id="circle43"
   d="m 519.59,105.54499 c -12.559,0 -22.767,10.207 -22.767,22.764 0,12.56 10.208,22.766 22.767,22.766 12.559,0 22.764,-10.206 22.764,-22.766 -0.001,-12.557 -10.207,-22.764 -22.764,-22.764 z m 0,1.924 c 11.518,0 20.84,9.322 20.84,20.839 0,11.52 -9.322,20.841 -20.84,20.841 -11.519,0 -20.841,-9.322 -20.841,-20.841 0,-11.517 9.322,-20.839 20.841,-20.839 z"
   inkscape:connector-curvature="0"
   style="fill:#f4f4f4" />
<path
   id="path45"
   d="m 517.665,99.289993 c -5.521,0.373 -11.008,2.331997 -15.697,5.983997 l -55.273,43.063 c -12.508,9.743 -14.765,27.818 -5.021,40.327 9.741,12.507 27.817,14.732 40.328,4.992 l 55.271,-43.034 c 12.509,-9.742 14.766,-27.819 5.021,-40.328 -6.088,-7.816 -15.426,-11.625997 -24.629,-11.003997 l 0,0 z m 0.12,1.893997 c 8.583,-0.582 17.287,2.98 22.975,10.286 9.104,11.688 7.027,28.518 -4.66,37.621 l -55.274,43.063 c -11.688,9.103 -28.518,6.996 -37.62,-4.691 -9.103,-11.688 -7.024,-28.518 4.662,-37.62 l 55.304,-43.034 c 4.38,-3.416 9.463,-5.275 14.613,-5.625 l 0,0 z"
   inkscape:connector-curvature="0"
   style="fill:#f4f4f4" />
</svg>